<mxfile host="app.diagrams.net" modified="2024-02-23T07:59:43.057Z" agent="Mozilla/5.0 (Windows NT 10.0; Win64; x64) AppleWebKit/537.36 (KHTML, like Gecko) Chrome/121.0.0.0 Safari/537.36" etag="umNPwrR0h8PL4ZFFIjav" version="23.1.5" type="github">
  <diagram name="第 1 页" id="749QKUUTfWpg7_d-YfUb">
    <mxGraphModel dx="1259" dy="702" grid="1" gridSize="10" guides="1" tooltips="1" connect="1" arrows="1" fold="1" page="1" pageScale="1" pageWidth="827" pageHeight="1169" math="0" shadow="0">
      <root>
        <mxCell id="0" />
        <mxCell id="1" parent="0" />
        <mxCell id="M-LmZH26AxWcThGKMuOI-1" value="" style="rounded=0;whiteSpace=wrap;html=1;fillColor=none;strokeColor=#4D4D4D;shadow=0;sketch=1;curveFitting=1;jiggle=2;" vertex="1" parent="1">
          <mxGeometry x="60" y="140" width="690" height="570" as="geometry" />
        </mxCell>
        <mxCell id="M-LmZH26AxWcThGKMuOI-3" value="物料生态" style="text;html=1;align=center;verticalAlign=middle;whiteSpace=wrap;rounded=0;fontSize=14;fontStyle=1;shadow=0;sketch=1;curveFitting=1;jiggle=2;" vertex="1" parent="1">
          <mxGeometry x="375" y="140" width="60" height="30" as="geometry" />
        </mxCell>
        <mxCell id="M-LmZH26AxWcThGKMuOI-4" value="磐石/Zebras/生态市场" style="text;html=1;align=center;verticalAlign=middle;whiteSpace=wrap;rounded=0;fontSize=14;fontStyle=1;shadow=0;sketch=1;curveFitting=1;jiggle=2;" vertex="1" parent="1">
          <mxGeometry x="60" y="140" width="150" height="30" as="geometry" />
        </mxCell>
        <mxCell id="M-LmZH26AxWcThGKMuOI-19" value="" style="endArrow=none;html=1;rounded=0;entryX=1.002;entryY=0.034;entryDx=0;entryDy=0;entryPerimeter=0;exitX=0;exitY=0.75;exitDx=0;exitDy=0;strokeColor=#4D4D4D;shadow=0;sketch=1;curveFitting=1;jiggle=2;" edge="1" parent="1">
          <mxGeometry width="50" height="50" relative="1" as="geometry">
            <mxPoint x="60" y="169.5" as="sourcePoint" />
            <mxPoint x="751.3800000000001" y="167.06000000000006" as="targetPoint" />
          </mxGeometry>
        </mxCell>
      </root>
    </mxGraphModel>
  </diagram>
</mxfile>
